<?xml version="1.0"?>
<svg version="1.1" xmlns="http://www.w3.org/2000/svg" width="400px" height="200px" style=""><path fill="#ffffff" d="M29.4677734375,74.658203125q0-3.4423828125,0.84228515625-5.01708984375t2.4169921875-2.197265625t3.80859375-0.47607421875t5.23681640625,0.146484375q7.6171875,0,15.380859375,2.34375t13.9892578125,6.84814453125t10.0341796875,11.09619140625t3.80859375,15.1611328125q0,5.712890625-1.64794921875,10.80322265625t-4.65087890625,9.521484375t-7.03125,8.09326171875t-8.8623046875,6.3720703125q1.9775390625,1.9775390625,5.126953125,6.99462890625t6.2255859375,10.693359375t5.45654296875,11.02294921875t2.81982421875,8.056640625l-0.87890625,1.318359375q-1.9775390625,1.171875-4.7607421875,1.2451171875q-1.318359375,0-3.4423828125-0.32958984375t-2.7099609375-1.94091796875q-3.0029296875-8.4228515625-6.55517578125-17.3583984375t-8.75244140625-16.11328125l0-0.146484375q-1.8310546875,0.732421875-3.62548828125,1.42822265625t-3.62548828125,1.28173828125q0.5859375,8.1298828125,1.20849609375,16.00341796875t0.62255859375,15.93017578125q0,1.025390625-0.98876953125,1.64794921875t-2.23388671875,0.98876953125t-2.52685546875,0.5126953125t-2.08740234375,0.146484375q-0.732421875,0-2.08740234375-0.146484375t-2.60009765625-0.5126953125t-2.16064453125-1.06201171875t-0.91552734375-1.86767578125q0-8.1298828125-0.3662109375-16.22314453125t-0.8056640625-16.14990234375q-2.2705078125-1.46484375-2.2705078125-3.80859375q0-1.8310546875,1.7578125-2.490234375q-0.87890625-15.4541015625-2.01416015625-30.8349609375t-1.13525390625-30.9814453125z M42.724609375,72.3876953125q1.025390625,15.8935546875,2.30712890625,31.4208984375t2.45361328125,31.4208984375q5.126953125-1.46484375,9.55810546875-5.09033203125t7.65380859375-8.16650390625t5.01708984375-9.8876953125t1.79443359375-10.6201171875q0-5.859375-2.34375-11.24267578125t-6.2255859375-9.41162109375q-3.955078125-4.0283203125-9.08203125-6.298828125q-4.541015625-1.9775390625-9.521484375-1.9775390625l-1.318359375,0z M99.975830078125,82.12890625q0-3.4423828125,0.18310546875-6.8115234375t0.62255859375-6.6650390625q0.29296875-1.6845703125,2.60009765625-2.4169921875t3.84521484375-0.732421875l1.7578125,0.146484375q2.1240234375,0.29296875,4.28466796875-0.29296875t4.28466796875-0.5859375q4.98046875,0,11.1328125,1.0986328125t11.53564453125,3.7353515625t9.04541015625,6.92138671875t3.662109375,10.58349609375t-3.80859375,11.75537109375t-9.5947265625,9.5947265625t-12.451171875,6.48193359375t-12.2314453125,2.34375q0.5859375,14.1357421875,1.64794921875,28.0517578125t3.62548828125,27.83203125l0.146484375,0.9521484375q0,1.025390625-0.91552734375,1.6845703125t-2.16064453125,1.06201171875t-2.52685546875,0.54931640625t-2.08740234375,0.146484375q-1.8310546875,0-4.43115234375-0.69580078125t-3.18603515625-2.74658203125q-1.6845703125-6.4453125-2.63671875-14.17236328125t-1.3916015625-16.14990234375t-0.62255859375-16.95556640625t-0.18310546875-16.66259765625l0-16.4794921875q0-2.7099609375-0.0732421875-5.6396484375t-0.0732421875-5.9326171875z M113.81860351562,70.263671875q0,10.0341796875,0.2197265625,20.03173828125t0.5126953125,20.03173828125q4.3212890625-0.87890625,8.82568359375-3.11279296875t8.1298828125-5.31005859375t5.859375-6.99462890625t2.23388671875-8.23974609375q0-3.8818359375-1.94091796875-6.9580078125t-5.01708984375-5.2734375q-3.0029296875-2.1240234375-6.8115234375-3.2958984375q-3.369140625-1.025390625-6.591796875-1.025390625l-0.8056640625,0z M168.06689453125,163.134765625q-0.0732421875-2.197265625-0.0732421875-4.39453125q0-6.884765625,0.732421875-13.8427734375q0.87890625-9.228515625,1.171875-18.1640625q0.29296875-10.4736328125,0.87890625-21.7529296875q0.3662109375-6.15234375,0.3662109375-12.158203125q0-4.9072265625-0.2197265625-9.7412109375q0.732421875-1.6845703125,1.94091796875-2.2705078125t3.03955078125-0.5859375q0.87890625,0,1.86767578125,0.146484375t1.72119140625,0.732421875q1.025390625,0.146484375,2.52685546875,0.29296875t2.30712890625,0.87890625q0.29296875,0.439453125,1.50146484375,3.0029296875t2.8564453125,6.2255859375t3.4423828125,7.94677734375t3.4423828125,8.1298828125t2.8564453125,6.77490234375t1.50146484375,3.662109375q6.884765625-12.451171875,13.4765625-25.59814453125t14.4287109375-24.79248046875q0.732421875-1.025390625,2.52685546875-1.50146484375t2.96630859375-0.47607421875q3.1494140625,0,4.57763671875,1.50146484375t1.86767578125,3.84521484375q0.29296875,1.46484375,0.3662109375,3.1494140625q0.0732421875,0.87890625-0.0732421875,1.8310546875q-0.29296875,2.7099609375-0.29296875,5.126953125q0,17.0654296875-1.171875,33.87451171875t-2.1240234375,33.94775390625q-0.146484375,3.515625-0.146484375,7.32421875t0.146484375,7.91015625q0.0732421875,1.46484375,0.0732421875,2.8564453125q0,6.4453125-1.0986328125,12.01171875q-1.025390625,1.6845703125-3.369140625,2.1240234375t-3.955078125,0.439453125q-3.4423828125,0-6.591796875-1.611328125l-0.8056640625-0.9521484375l-0.29296875-1.171875t-0.146484375-1.171875q0-10.6201171875,0.76904296875-21.38671875t1.72119140625-21.49658203125t2.01416015625-21.42333984375t1.79443359375-21.38671875q-4.3212890625,7.177734375-8.38623046875,14.61181640625t-7.65380859375,15.12451171875q-1.318359375,3.0029296875-2.52685546875,6.4453125t-2.89306640625,6.15234375q-0.87890625,1.318359375-2.96630859375,1.611328125t-3.62548828125,0.29296875q-1.46484375,0-3.03955078125-0.5126953125t-2.16064453125-2.197265625q-2.7099609375-8.2763671875-5.7861328125-16.1865234375t-6.2255859375-16.0400390625q0,5.419921875,0.2197265625,14.02587890625t0.2197265625,17.83447265625t-0.29296875,17.6513671875t-1.3916015625,13.330078125q-0.29296875,1.8310546875-2.38037109375,2.2705078125t-3.62548828125,0.439453125q-1.171875,0-2.23388671875-0.146484375t-2.08740234375-0.5859375z"/><path fill="#" d=""/></svg>
