<?xml version="1.0"?>
<svg version="1.1" xmlns="http://www.w3.org/2000/svg" width="427px" height="280px" style=""><path fill="#ffffff" d="M53.1484375,99.453125q0-5.5078125,1.34765625-8.02734375t3.8671875-3.515625t6.09375-0.76171875t8.37890625,0.234375q12.1875,0,24.609375,3.75t22.3828125,10.95703125t16.0546875,17.75390625t6.09375,24.2578125q0,9.140625-2.63671875,17.28515625t-7.44140625,15.234375t-11.25,12.94921875t-14.1796875,10.1953125q3.1640625,3.1640625,8.203125,11.19140625t9.9609375,17.109375t8.73046875,17.63671875t4.51171875,12.890625l-1.40625,2.109375q-3.1640625,1.875-7.6171875,1.9921875q-2.109375,0-5.5078125-0.52734375t-4.3359375-3.10546875q-4.8046875-13.4765625-10.48828125-27.7734375t-14.00390625-25.78125l0-0.234375q-2.9296875,1.171875-5.80078125,2.28515625t-5.80078125,2.05078125q0.9375,13.0078125,1.93359375,25.60546875t0.99609375,25.48828125q0,1.640625-1.58203125,2.63671875t-3.57421875,1.58203125t-4.04296875,0.8203125t-3.33984375,0.234375q-1.171875,0-3.33984375-0.234375t-4.16015625-0.8203125t-3.45703125-1.69921875t-1.46484375-2.98828125q0-13.0078125-0.5859375-25.95703125t-1.2890625-25.83984375q-3.6328125-2.34375-3.6328125-6.09375q0-2.9296875,2.8125-3.984375q-1.40625-24.7265625-3.22265625-49.3359375t-1.81640625-49.5703125z M74.359375,95.8203125q1.640625,25.4296875,3.69140625,50.2734375t3.92578125,50.2734375q8.203125-2.34375,15.29296875-8.14453125t12.24609375-13.06640625t8.02734375-15.8203125t2.87109375-16.9921875q0-9.375-3.75-17.98828125t-9.9609375-15.05859375q-6.328125-6.4453125-14.53125-10.078125q-7.265625-3.1640625-15.234375-3.1640625l-2.109375,0z M165.961328125,111.40625q0-5.5078125,0.29296875-10.8984375t0.99609375-10.6640625q0.46875-2.6953125,4.16015625-3.8671875t6.15234375-1.171875l2.8125,0.234375q3.3984375,0.46875,6.85546875-0.46875t6.85546875-0.9375q7.96875,0,17.8125,1.7578125t18.45703125,5.9765625t14.47265625,11.07421875t5.859375,16.93359375t-6.09375,18.80859375t-15.3515625,15.3515625t-19.921875,10.37109375t-19.5703125,3.75q0.9375,22.6171875,2.63671875,44.8828125t5.80078125,44.53125l0.234375,1.5234375q0,1.640625-1.46484375,2.6953125t-3.45703125,1.69921875t-4.04296875,0.87890625t-3.33984375,0.234375q-2.9296875,0-7.08984375-1.11328125t-5.09765625-4.39453125q-2.6953125-10.3125-4.21875-22.67578125t-2.2265625-25.83984375t-0.99609375-27.12890625t-0.29296875-26.66015625l0-26.3671875q0-4.3359375-0.1171875-9.0234375t-0.1171875-9.4921875z M188.109765625,92.421875q0,16.0546875,0.3515625,32.05078125t0.8203125,32.05078125q6.9140625-1.40625,14.12109375-4.98046875t13.0078125-8.49609375t9.375-11.19140625t3.57421875-13.18359375q0-6.2109375-3.10546875-11.1328125t-8.02734375-8.4375q-4.8046875-3.3984375-10.8984375-5.2734375q-5.390625-1.640625-10.546875-1.640625l-1.2890625,0z M274.90703125,241.015625q-0.1171875-3.515625-0.1171875-7.03125q0-11.015625,1.171875-22.1484375q1.40625-14.765625,1.875-29.0625q0.46875-16.7578125,1.40625-34.8046875q0.5859375-9.84375,0.5859375-19.453125q0-7.8515625-0.3515625-15.5859375q1.171875-2.6953125,3.10546875-3.6328125t4.86328125-0.9375q1.40625,0,2.98828125,0.234375t2.75390625,1.171875q1.640625,0.234375,4.04296875,0.46875t3.69140625,1.40625q0.46875,0.703125,2.40234375,4.8046875t4.5703125,9.9609375t5.5078125,12.71484375t5.5078125,13.0078125t4.5703125,10.83984375t2.40234375,5.859375q11.015625-19.921875,21.5625-40.95703125t23.0859375-39.66796875q1.171875-1.640625,4.04296875-2.40234375t4.74609375-0.76171875q5.0390625,0,7.32421875,2.40234375t2.98828125,6.15234375q0.46875,2.34375,0.5859375,5.0390625q0.1171875,1.40625-0.1171875,2.9296875q-0.46875,4.3359375-0.46875,8.203125q0,27.3046875-1.875,54.19921875t-3.3984375,54.31640625q-0.234375,5.625-0.234375,11.71875t0.234375,12.65625q0.1171875,2.34375,0.1171875,4.5703125q0,10.3125-1.7578125,19.21875q-1.640625,2.6953125-5.390625,3.3984375t-6.328125,0.703125q-5.5078125,0-10.546875-2.578125l-1.2890625-1.5234375l-0.46875-1.875t-0.234375-1.875q0-16.9921875,1.23046875-34.21875t2.75390625-34.39453125t3.22265625-34.27734375t2.87109375-34.21875q-6.9140625,11.484375-13.41796875,23.37890625t-12.24609375,24.19921875q-2.109375,4.8046875-4.04296875,10.3125t-4.62890625,9.84375q-1.40625,2.109375-4.74609375,2.578125t-5.80078125,0.46875q-2.34375,0-4.86328125-0.8203125t-3.45703125-3.515625q-4.3359375-13.2421875-9.2578125-25.8984375t-9.9609375-25.6640625q0,8.671875,0.3515625,22.44140625t0.3515625,28.53515625t-0.46875,28.2421875t-2.2265625,21.328125q-0.46875,2.9296875-3.80859375,3.6328125t-5.80078125,0.703125q-1.875,0-3.57421875-0.234375t-3.33984375-0.9375z"/><path fill="#" d=""/></svg>
